<?xml version="1.0" standalone="no"?>
<!DOCTYPE svg PUBLIC "-//W3C//DTD SVG 20010904//EN"
 "http://www.w3.org/TR/2001/REC-SVG-20010904/DTD/svg10.dtd">
<svg version="1.0" xmlns="http://www.w3.org/2000/svg"
 width="106.000000pt" height="54.000000pt" viewBox="0 0 106.000000 54.000000"
 preserveAspectRatio="xMidYMid meet">

<g transform="translate(0.000000,54.000000) scale(0.100000,-0.100000)"
fill="#000000" stroke="none">
<path d="M497 427 c-26 -24 -41 -52 -57 -105 -25 -82 -22 -123 4 -46 9 28 30
72 47 98 25 40 34 47 57 44 42 -5 64 -57 59 -136 -4 -46 -1 -62 8 -62 47 0 25
203 -26 230 -31 17 -57 11 -92 -23z"/>
<path d="M273 143 c-24 -9 -13 -22 29 -33 42 -12 123 -6 133 10 12 20 -122 40
-162 23z"/>
<path d="M493 144 c-13 -3 -23 -9 -23 -15 0 -16 54 -24 165 -24 123 1 174 10
157 27 -12 12 -257 21 -299 12z"/>
</g>
</svg>
