<?xml version="1.0" standalone="no"?>
<!DOCTYPE svg PUBLIC "-//W3C//DTD SVG 20010904//EN"
 "http://www.w3.org/TR/2001/REC-SVG-20010904/DTD/svg10.dtd">
<svg version="1.0" xmlns="http://www.w3.org/2000/svg"
 width="1993.000000pt" height="1033.000000pt" viewBox="0 0 1993.000000 1033.000000"
 preserveAspectRatio="xMidYMid meet">

<g transform="translate(0.000000,1033.000000) scale(0.100000,-0.100000)"
fill="#000000" stroke="none">
<path d="M10360 8815 c-521 -85 -1089 -552 -1576 -1295 -88 -135 -124 -180
-124 -155 0 29 211 455 317 640 45 76 78 145 75 153 -11 29 -180 -180 -339
-418 -227 -340 -424 -758 -551 -1165 -243 -777 -312 -1395 -252 -2224 22 -291
33 -398 53 -496 l12 -60 235 -3 236 -2 -22 109 c-40 199 -57 388 -57 651 0
618 152 1235 511 2086 356 842 883 1453 1360 1575 332 85 684 -43 869 -317
131 -193 220 -487 245 -807 13 -169 5 -514 -17 -747 -18 -189 -62 -480 -99
-655 -14 -66 -26 -126 -26 -132 0 -79 148 258 210 477 80 284 110 510 117 903
7 398 15 397 88 -13 56 -323 74 -601 56 -875 -27 -393 -71 -637 -191 -1063
-113 -403 -244 -698 -465 -1052 -40 -63 -75 -121 -79 -127 -6 -10 63 -13 332
-13 l339 0 71 148 c346 718 514 1551 482 2392 -11 291 -30 459 -76 690 -127
644 -369 1128 -737 1477 -166 157 -328 251 -522 305 -94 26 -354 33 -475 13z"/>
<path d="M8750 4044 c0 -16 9 -80 21 -141 l21 -113 48 0 49 0 -66 138 c-36 75
-67 139 -69 141 -2 2 -4 -9 -4 -25z"/>
<path d="M4580 3565 l0 -75 5540 0 5540 0 0 75 0 75 -5540 0 -5540 0 0 -75z"/>
<path d="M6078 2991 c-80 -26 -136 -61 -192 -121 -123 -132 -165 -373 -105
-609 56 -219 219 -341 455 -341 109 0 177 14 252 52 111 56 190 162 229 310
22 84 22 278 0 371 -45 183 -163 308 -328 346 -73 17 -246 12 -311 -8z m235
-233 c11 -5 28 -31 40 -56 18 -41 22 -70 25 -214 6 -256 -23 -328 -131 -328
-45 0 -59 4 -81 26 -42 43 -51 92 -51 289 0 168 2 183 23 227 34 69 106 92
175 56z"/>
<path d="M7040 2991 c-114 -37 -189 -95 -226 -176 -34 -71 -33 -189 0 -260 41
-88 144 -160 306 -214 116 -38 165 -84 140 -131 -38 -71 -184 -66 -297 10 -25
17 -48 32 -53 33 -4 1 -43 -38 -88 -87 l-80 -88 32 -28 c95 -83 239 -130 399
-130 206 0 352 72 418 206 20 42 24 63 24 144 -1 188 -72 264 -328 354 -54 19
-110 42 -123 51 -24 15 -31 48 -16 73 26 41 162 31 248 -19 28 -16 53 -29 56
-29 2 0 37 38 76 84 l72 85 -43 35 c-88 72 -203 106 -357 105 -72 0 -122 -6
-160 -18z"/>
<path d="M12828 2991 c-174 -57 -277 -185 -313 -388 -27 -150 1 -358 62 -462
86 -147 222 -221 409 -221 109 0 177 14 252 52 181 91 278 327 243 594 -29
218 -117 348 -281 415 -79 32 -289 38 -372 10z m235 -233 c11 -5 28 -31 40
-56 18 -41 22 -70 25 -214 6 -256 -23 -328 -132 -328 -49 0 -57 3 -84 34 -41
47 -56 139 -50 321 3 120 7 147 27 187 33 69 105 92 174 56z"/>
<path d="M4810 2465 l0 -515 175 0 175 0 0 200 0 200 95 0 95 0 0 -200 0 -200
170 0 170 0 0 515 0 515 -170 0 -170 0 0 -185 0 -185 -95 0 -95 0 0 185 0 185
-175 0 -175 0 0 -515z"/>
<path d="M7630 2855 l0 -125 120 0 120 0 0 -390 0 -390 170 0 170 0 0 390 0
390 110 0 109 0 6 33 c3 17 11 74 19 125 l13 92 -419 0 -418 0 0 -125z"/>
<path d="M8810 2465 l0 -515 170 0 170 0 0 200 0 200 95 0 95 0 0 -200 0 -200
350 0 350 0 4 23 c3 12 11 54 18 92 l13 70 105 0 105 0 14 -92 14 -93 354 0
353 0 0 176 c0 156 2 175 16 172 9 -2 54 -76 106 -175 l90 -173 426 0 c235 0
459 5 497 10 208 30 303 111 313 266 8 128 -38 202 -154 249 l-59 24 46 19
c87 38 136 121 126 217 -14 135 -100 205 -287 235 -36 5 -172 10 -302 10
l-238 0 -2 -507 -3 -508 -118 199 c-65 110 -114 202 -109 205 101 68 153 151
160 256 9 141 -45 246 -155 301 -92 46 -160 54 -447 54 l-256 0 -1 -497 -1
-498 -141 498 -142 497 -205 -2 -204 -3 -142 -495 -143 -495 0 498 -1 497
-175 0 -175 0 0 -185 0 -185 -95 0 -95 0 0 185 0 185 -170 0 -170 0 0 -515z
m2341 257 c27 -24 31 -34 31 -79 -1 -87 -28 -113 -118 -113 l-44 0 0 110 0
110 50 0 c40 0 56 -5 81 -28z m914 8 c16 -13 21 -86 7 -106 -13 -19 -50 -34
-86 -34 l-36 0 0 81 0 82 50 -5 c27 -3 56 -11 65 -18z m-1855 -176 c17 -93 30
-172 30 -176 0 -5 -30 -8 -66 -8 -58 0 -65 2 -60 18 3 9 17 90 32 179 15 90
29 161 31 159 2 -2 17 -79 33 -172z m1887 -208 c24 -29 31 -83 13 -116 -12
-23 -61 -40 -116 -40 l-44 0 0 96 0 96 62 -4 c51 -4 65 -9 85 -32z"/>
<path d="M13542 2583 l3 -398 27 -57 c47 -101 141 -170 269 -198 86 -19 269
-9 342 19 108 42 191 125 224 224 14 44 17 107 21 430 l3 377 -175 0 -175 0
-3 -386 -3 -386 -28 -24 c-50 -43 -128 -27 -152 31 -12 28 -15 103 -15 400 l0
365 -171 0 -170 0 3 -397z"/>
<path d="M14500 2466 l0 -516 170 0 170 0 0 175 c0 168 1 175 20 175 16 0 38
-36 107 -175 l88 -175 189 0 188 0 -14 23 c-8 12 -63 104 -123 205 l-108 183
61 54 c84 77 107 127 106 235 0 66 -6 97 -24 138 -32 73 -104 136 -188 164
-61 20 -91 22 -354 26 l-288 4 0 -516z m460 269 c38 -20 50 -43 50 -100 0 -38
-5 -52 -29 -76 -26 -25 -37 -29 -85 -29 l-56 0 0 110 0 110 45 0 c26 0 59 -7
75 -15z"/>
<path d="M4580 1405 l0 -75 5540 0 5540 0 0 75 0 75 -5540 0 -5540 0 0 -75z"/>
</g>
</svg>
